<?xml version="1.0" encoding="UTF-8" standalone="no"?>
<!-- Generator: Adobe Illustrator 19.1.0, SVG Export Plug-In . SVG Version: 6.00 Build 0)  -->

<svg
   xmlns:dc="http://purl.org/dc/elements/1.1/"
   xmlns:cc="http://creativecommons.org/ns#"
   xmlns:rdf="http://www.w3.org/1999/02/22-rdf-syntax-ns#"
   xmlns:svg="http://www.w3.org/2000/svg"
   xmlns="http://www.w3.org/2000/svg"
   xmlns:sodipodi="http://sodipodi.sourceforge.net/DTD/sodipodi-0.dtd"
   xmlns:inkscape="http://www.inkscape.org/namespaces/inkscape"
   version="1.1"
   id="Capa_1"
   x="0px"
   y="0px"
   viewBox="0 0 218.332 218.332"
   style="enable-background:new 0 0 218.332 218.332;"
   xml:space="preserve"
   sodipodi:docname="mainLogo.svg"
   inkscape:version="0.92.3 (2405546, 2018-03-11)"><metadata
   id="metadata160"><rdf:RDF><cc:Work
       rdf:about=""><dc:format>image/svg+xml</dc:format><dc:type
         rdf:resource="http://purl.org/dc/dcmitype/StillImage" /><dc:title></dc:title></cc:Work></rdf:RDF></metadata><defs
   id="defs158"><pattern
     patternUnits="userSpaceOnUse"
     width="29.772"
     height="7.379"
     patternTransform="translate(156.331,148.907)"
     id="pattern162"><path
       d="m 23.893,7.379 c 3.246,0 5.879,-1.652 5.879,-3.689 C 29.772,1.652 27.139,0 23.893,0 H 5.878 C 2.631,0 0,1.652 0,3.69 0,5.727 2.631,7.379 5.878,7.379 Z"
       style="fill:#fbb713"
       id="path-2_126_"
       inkscape:connector-curvature="0" /></pattern></defs><sodipodi:namedview
   pagecolor="#ffffff"
   bordercolor="#666666"
   borderopacity="1"
   objecttolerance="10"
   gridtolerance="10"
   guidetolerance="10"
   inkscape:pageopacity="0"
   inkscape:pageshadow="2"
   inkscape:window-width="1366"
   inkscape:window-height="715"
   id="namedview156"
   showgrid="false"
   inkscape:zoom="1.0553864"
   inkscape:cx="93.358075"
   inkscape:cy="67.599824"
   inkscape:window-x="-8"
   inkscape:window-y="-8"
   inkscape:window-maximized="1"
   inkscape:current-layer="g123"
   showborder="false"
   inkscape:snap-smooth-nodes="true"
   inkscape:object-nodes="true"
   inkscape:snap-nodes="true"
   inkscape:snap-to-guides="true"
   inkscape:snap-grids="true" />

<g
   id="g125"
   inkscape:label="g125">
</g><g
   id="g123"
   transform="translate(-38.183763)">
	<g
   id="group-61svg"
   transform="translate(5.3033009,-4.5961941)">
		
		
		
		
		<path
   id="path-5_125_"
   style="opacity:0.35;fill:#040404;enable-background:new"
   d="M 117.206,22.061 111.314,72.842 88.63,50.369 Z"
   inkscape:connector-curvature="0" />
		
		<path
   id="path-7_124_"
   style="opacity:0.5;fill:#ffffff;enable-background:new"
   d="m 162.574,78.676 -51.26,-5.834 22.684,-22.474 z"
   inkscape:connector-curvature="0" />
		<path
   id="path-8_121_"
   style="fill:#333333;stroke-width:0.87352526"
   d="m 111.2055,173.23274 c -1.8581,0 -3.3655,-1.21376 -3.3655,-2.71029 V 70.144865 c 0,-1.497315 1.5074,-2.711865 3.3655,-2.711865 1.8581,0 3.3655,1.21455 3.3655,2.711865 V 170.52245 c 0,1.49575 -1.5074,2.71029 -3.3655,2.71029 z"
   inkscape:connector-curvature="0" />
		
		<path
   id="path-10_107_"
   style="opacity:0.5;fill:#ffffff;enable-background:new"
   d="m 105.423,123.62 5.891,-50.778 22.684,22.47 z"
   inkscape:connector-curvature="0" />
		<g
   id="g171"
   transform="matrix(1.3205504,0,0,1.3330016,-35.681747,-24.256503)"><path
     d="M 117.206,22.061 88.63,50.369 111.314,72.842 147.896,36.6 168.107,16.578 Z"
     style="fill:#23ca96;fill-opacity:1"
     id="path-4_125_"
     inkscape:connector-curvature="0" /><path
     d="m 162.574,78.676 -28.576,-28.308 -22.684,22.474 36.582,36.237 20.212,20.025 z"
     style="fill:#ff3a2f"
     id="path-6_124_"
     inkscape:connector-curvature="0" /><path
     d="m 111.314,72.841 -36.583,36.237 -20.212,20.025 50.904,-5.484 28.575,-28.308 z"
     style="fill:#ffa11c;fill-opacity:1"
     id="path-9_115_"
     inkscape:connector-curvature="0" /><path
     d="M 74.731,36.6 54.519,16.576 60.053,67.003 88.629,95.312 111.314,72.842 Z"
     style="fill:#0cb0d4;fill-opacity:1"
     id="path-11_94_"
     inkscape:connector-curvature="0" /></g>
		
		<path
   id="path-13_70_"
   style="fill:#4d4d4d"
   d="m 114.571,76.068 c -1.799,1.784 -4.716,1.784 -6.516,0 -1.8,-1.784 -1.8,-4.673 0,-6.455 1.8,-1.784 4.717,-1.784 6.516,0 1.799,1.782 1.799,4.671 0,6.455 z"
   inkscape:connector-curvature="0" />
	</g><text
   xml:space="preserve"
   style="font-style:normal;font-variant:normal;font-weight:100;font-stretch:normal;font-size:156.5710144px;line-height:1.25;font-family:'AR CENA';-inkscape-font-specification:'AR CENA, Thin';font-variant-ligatures:normal;font-variant-caps:normal;font-variant-numeric:normal;font-feature-settings:normal;text-align:start;letter-spacing:0px;word-spacing:0px;writing-mode:lr-tb;text-anchor:start;fill:#333333;fill-opacity:1;stroke:none;stroke-width:3.91427565"
   x="-70.84742"
   y="225.91168"
   id="text876"
   transform="scale(0.96319006,1.0382167)"><tspan
     sodipodi:role="line"
     id="tspan874"
     x="-70.84742"
     y="225.91168"
     style="fill:#333333;stroke-width:3.91427565">Smoky</tspan></text>

</g>
<g
   id="g127">
</g>
<g
   id="g129">
</g>
<g
   id="g131">
</g>
<g
   id="g133">
</g>
<g
   id="g135">
</g>
<g
   id="g137">
</g>
<g
   id="g139">
</g>
<g
   id="g141">
</g>
<g
   id="g143">
</g>
<g
   id="g145">
</g>
<g
   id="g147"
   inkscape:label="g147">
</g>
<g
   id="g149">
</g>
<g
   id="g151">
</g>
<g
   id="g153"
   inkscape:label="g153">
</g>
</svg>