<?xml version="1.0" standalone="no"?>
<!DOCTYPE svg PUBLIC "-//W3C//DTD SVG 20010904//EN"
 "http://www.w3.org/TR/2001/REC-SVG-20010904/DTD/svg10.dtd">
<svg version="1.0" xmlns="http://www.w3.org/2000/svg"
 width="107.000000pt" height="102.000000pt" viewBox="0 0 107.000000 102.000000"
 preserveAspectRatio="xMidYMid meet">
<metadata>
Created by potrace 1.15, written by Peter Selinger 2001-2017
</metadata>
<g transform="translate(0.000000,102.000000) scale(0.100000,-0.100000)"
fill="#000000" stroke="none">
<path d="M10 1013 c0 -2 0 -229 0 -504 l0 -502 525 1 525 1 1 501 0 500 -525
3 c-289 1 -526 1 -526 0z m1024 -32 c22 -24 13 -43 -19 -37 -29 5 -52 -20 -51
-55 1 -34 22 -59 46 -54 10 2 24 -2 29 -9 8 -9 10 -137 9 -407 l-3 -394 -55 0
-55 0 -1 45 c-1 36 4 49 23 65 l24 20 0 324 c0 259 -3 327 -13 338 -11 10 -87
13 -378 14 -360 0 -365 0 -379 -21 -11 -16 -13 -59 -12 -189 3 -190 1 -194
-70 -189 l-42 3 2 -203 c2 -177 0 -203 -14 -208 -9 -4 -24 1 -35 11 -19 18
-20 34 -20 485 0 257 3 470 7 473 3 4 228 7 498 7 474 0 493 -1 509 -19z
m-132 -218 c10 -9 18 -20 18 -25 0 -10 -154 -11 -164 0 -4 4 -12 8 -17 8 -5 1
-10 2 -11 4 -2 1 -29 3 -60 3 -38 1 -59 -2 -63 -10 -3 -9 -32 -13 -94 -13 -90
0 -108 7 -97 35 4 13 44 15 237 15 202 0 235 -2 251 -17z m-322 -92 c0 -5 -8
-8 -17 -6 -10 1 -23 -2 -29 -7 -7 -5 -16 -8 -20 -6 -28 8 -152 -102 -139 -123
3 -4 1 -10 -5 -14 -6 -4 -8 -10 -5 -15 3 -5 2 -11 -2 -13 -6 -4 -9 -110 -4
-124 1 -2 1 -5 1 -8 0 -3 9 -21 20 -40 11 -20 20 -38 20 -40 0 -3 -19 -4 -42
-2 l-43 4 -2 117 c-1 65 -3 119 -5 120 -1 1 -15 10 -30 19 -25 16 -28 23 -28
76 0 32 3 61 7 64 10 11 323 8 323 -2z m332 -8 c16 -14 18 -34 18 -183 0 -192
0 -192 -80 -189 -51 3 -70 12 -50 24 6 4 8 10 5 15 -3 5 -1 11 4 15 6 3 8 12
5 19 -3 8 -1 16 3 19 11 7 8 102 -4 120 -4 6 -8 19 -8 28 0 9 -8 26 -18 37
-17 19 -17 20 8 40 14 11 26 24 27 29 2 41 56 57 90 26z"/>
</g>
</svg>
